<svg preserveAspectRatio="none" width="100%" height="100%" overflow="visible" style="display: block;" viewBox="0 0 14.7 14.7" fill="none" xmlns="http://www.w3.org/2000/svg">
<g id="Icon">
<path d="M6.09347 1.58798C6.41327 0.270672 8.28673 0.270673 8.60653 1.58798C8.81312 2.43895 9.78806 2.84278 10.5359 2.38714C11.6935 1.68179 13.0182 3.00653 12.3129 4.16414C11.8572 4.91194 12.2611 5.88688 13.112 6.09347C14.4293 6.41327 14.4293 8.28673 13.112 8.60653C12.2611 8.81312 11.8572 9.78806 12.3129 10.5359C13.0182 11.6935 11.6935 13.0182 10.5359 12.3129C9.78806 11.8572 8.81312 12.2611 8.60653 13.112C8.28673 14.4293 6.41327 14.4293 6.09347 13.112C5.88688 12.2611 4.91194 11.8572 4.16414 12.3129C3.00653 13.0182 1.68179 11.6935 2.38714 10.5359C2.84278 9.78806 2.43895 8.81312 1.58798 8.60653C0.270673 8.28673 0.270672 6.41327 1.58798 6.09347C2.43895 5.88688 2.84278 4.91194 2.38714 4.16414C1.68179 3.00653 3.00653 1.68179 4.16414 2.38714C4.91194 2.84278 5.88688 2.43895 6.09347 1.58798Z" stroke="var(--stroke-0, #3F3F46)" stroke-width="1.2" stroke-linecap="round" stroke-linejoin="round"/>
<path d="M9.6 7.35C9.6 8.59264 8.59264 9.6 7.35 9.6C6.10736 9.6 5.1 8.59264 5.1 7.35C5.1 6.10736 6.10736 5.1 7.35 5.1C8.59264 5.1 9.6 6.10736 9.6 7.35Z" stroke="var(--stroke-0, #3F3F46)" stroke-width="1.2" stroke-linecap="round" stroke-linejoin="round"/>
</g>
</svg>
