<svg preserveAspectRatio="none" width="100%" height="100%" overflow="visible" style="display: block;" viewBox="0 0 14.7 14.7" fill="none" xmlns="http://www.w3.org/2000/svg">
<path id="Icon" d="M7.35 1.61563C7.89971 0.992816 8.70398 0.6 9.6 0.6C11.2569 0.6 12.6 1.94315 12.6 3.6C12.6 5.25685 11.2569 6.6 9.6 6.6C8.70398 6.6 7.89971 6.20718 7.35 5.58437M9.6 14.1H0.6V13.35C0.6 10.8647 2.61472 8.85 5.1 8.85C7.58528 8.85 9.6 10.8647 9.6 13.35V14.1ZM9.6 14.1H14.1V13.35C14.1 10.8647 12.0853 8.85 9.6 8.85C8.78035 8.85 8.01189 9.06914 7.35 9.45202M8.1 3.6C8.1 5.25685 6.75685 6.6 5.1 6.6C3.44315 6.6 2.1 5.25685 2.1 3.6C2.1 1.94315 3.44315 0.6 5.1 0.6C6.75685 0.6 8.1 1.94315 8.1 3.6Z" stroke="var(--stroke-0, #3F3F46)" stroke-width="1.2" stroke-linecap="round" stroke-linejoin="round"/>
</svg>
