<svg preserveAspectRatio="none" width="100%" height="100%" overflow="visible" style="display: block;" viewBox="0 0 13.2 14.7" fill="none" xmlns="http://www.w3.org/2000/svg">
<path id="Icon" d="M8.85002 11.1H12.6L11.5463 10.0463C11.2606 9.76054 11.1 9.37297 11.1 8.96884V6.6C11.1 4.64067 9.84781 2.97382 8.10002 2.35606V2.1C8.10002 1.27157 7.42844 0.6 6.60002 0.6C5.77159 0.6 5.10002 1.27157 5.10002 2.1V2.35606C3.35223 2.97382 2.10002 4.64067 2.10002 6.6V8.96884C2.10002 9.37297 1.93948 9.76054 1.65372 10.0463L0.600018 11.1H4.35002M8.85002 11.1V11.85C8.85002 13.0926 7.84266 14.1 6.60002 14.1C5.35738 14.1 4.35002 13.0926 4.35002 11.85V11.1M8.85002 11.1H4.35002" stroke="var(--stroke-0, #3F3F46)" stroke-width="1.2" stroke-linecap="round" stroke-linejoin="round"/>
</svg>
