<svg preserveAspectRatio="none" width="100%" height="100%" overflow="visible" style="display: block;" viewBox="0 0 748 189" fill="none" xmlns="http://www.w3.org/2000/svg">
<g id="BG">
<mask id="mask0_12_593" style="mask-type:alpha" maskUnits="userSpaceOnUse" x="0" y="0" width="748" height="189">
<rect id="BG_2" width="748" height="189" fill="var(--fill-0, white)"/>
</mask>
<g mask="url(#mask0_12_593)">
<path id="Graph 1" d="M-1.70213 142C-12.8511 146.8 -21.2128 148.667 -24 149V190H762V40C750.541 50.6667 723.165 70.8 705.326 66C683.028 60 657.943 61 641.22 66C624.496 71 614.277 78 595.695 79C577.113 80 582.688 75 553.887 72C525.085 69 513.007 98 499.071 106C485.135 114 449.83 112 436.823 106C423.816 100 412.667 98 402.447 98C392.227 98 392.227 105 377.362 106C362.496 107 347.631 97 327.191 98C306.752 99 278.879 118 257.511 119C236.142 120 249.149 114 218.489 112C187.83 110 163.674 136 144.163 142C124.652 148 95.8511 135 80.0567 131C64.2624 127 49.3972 142 37.3191 142C25.2411 142 12.234 136 -1.70213 142Z" fill="var(--fill-0, #EEF2FF)" fill-opacity="0.5" stroke="var(--stroke-0, #4F46E5)" stroke-width="2"/>
<path id="Graph 2" d="M-75.4538 168.5H-108V196H756V96C754.983 99.3333 752.847 106.5 752.44 108.5C751.932 111 742.778 117.5 738.201 114.5C733.625 111.5 723.962 111 718.877 112.5C713.792 114 714.809 111 705.147 108.5C695.484 106 692.433 114 687.348 115.5C682.263 117 674.634 114 671.075 111L670.922 110.871C667.383 107.887 662.757 103.986 650.225 103C637.511 102 634.969 117.5 629.883 123C624.798 128.5 613.102 125.5 610.051 124.5C606.999 123.5 604.457 120 594.795 123C585.132 126 575.979 136.5 564.283 137C552.586 137.5 542.416 129.5 534.279 129.5C526.142 129.5 528.685 131 517.497 133.5C506.31 136 486.985 129.5 480.374 127C473.763 124.5 465.118 127 460.542 129.5C455.965 132 439.692 132.5 435.115 131C430.538 129.5 417.316 126 414.265 129.5C411.214 133 397.483 127 393.415 127C389.347 127 391.381 123.5 380.702 121.5C370.022 119.5 362.903 129.5 359.852 131C356.8 132.5 351.207 130 346.121 127C341.036 124 320.186 121 307.981 123.5C295.776 126 294.759 133.5 286.623 134.5C278.486 135.5 274.926 142.5 270.858 142.5C266.79 142.5 264.247 142.5 260.687 140.5C257.128 138.5 248.483 140.5 244.923 142.5C241.363 144.5 235.261 145.5 228.141 146C221.022 146.5 216.953 142 211.36 140.5C205.766 139 198.138 138 183.899 138.5C169.66 139 170.168 148 155.421 151.5C140.673 155 129.994 150.5 119.823 149C109.653 147.5 101.008 154.5 96.4308 157C91.854 159.5 81.6833 157 71.5126 154.5C61.342 152 57.2737 157 55.7481 157C54.2225 157 47.103 163.5 38.9664 157C30.8299 150.5 27.2702 152.5 24.2189 152.5C21.1677 152.5 19.1336 156 14.5568 154.5C9.97999 153 9.97999 148.5 2.35197 149C-5.27605 149.5 -10.8699 160 -13.4126 161.5C-15.9553 163 -21.5491 165 -25.6174 165.5C-29.6857 166 -29.6857 163.5 -41.8905 162.5C-54.0954 161.5 -61.2148 168.5 -75.4538 168.5Z" fill="var(--fill-0, white)" fill-opacity="0.04" stroke="var(--stroke-0, #818CF8)" stroke-width="2"/>
</g>
</g>
</svg>
