<svg preserveAspectRatio="none" width="100%" height="100%" overflow="visible" style="display: block;" viewBox="0 0 14.7 14.7" fill="none" xmlns="http://www.w3.org/2000/svg">
<path id="Icon" d="M5.1 12.6V8.1C5.1 7.27157 4.42843 6.6 3.6 6.6H2.1C1.27157 6.6 0.6 7.27157 0.6 8.1V12.6C0.6 13.4284 1.27157 14.1 2.1 14.1H3.6C4.42843 14.1 5.1 13.4284 5.1 12.6ZM5.1 12.6V5.1C5.1 4.27157 5.77157 3.6 6.6 3.6H8.1C8.92843 3.6 9.6 4.27157 9.6 5.1V12.6M5.1 12.6C5.1 13.4284 5.77157 14.1 6.6 14.1H8.1C8.92843 14.1 9.6 13.4284 9.6 12.6M9.6 12.6V2.1C9.6 1.27157 10.2716 0.6 11.1 0.6H12.6C13.4284 0.6 14.1 1.27157 14.1 2.1V12.6C14.1 13.4284 13.4284 14.1 12.6 14.1H11.1C10.2716 14.1 9.6 13.4284 9.6 12.6Z" stroke="var(--stroke-0, #3F3F46)" stroke-width="1.2" stroke-linecap="round" stroke-linejoin="round"/>
</svg>
