<svg preserveAspectRatio="none" width="100%" height="100%" overflow="visible" style="display: block;" viewBox="0 0 17.8667 19.95" fill="none" xmlns="http://www.w3.org/2000/svg">
<path id="Icon" d="M12.0584 15.1833H17.2667L15.8032 13.7199C15.4063 13.323 15.1834 12.7847 15.1834 12.2234V8.93334C15.1834 6.21205 13.4442 3.89697 11.0167 3.03897V2.68333C11.0167 1.53274 10.0839 0.6 8.93335 0.6C7.78276 0.6 6.85002 1.53274 6.85002 2.68333V3.03897C4.42253 3.89697 2.68335 6.21205 2.68335 8.93334V12.2234C2.68335 12.7847 2.46038 13.323 2.06349 13.7199L0.600018 15.1833H5.80835M12.0584 15.1833V16.225C12.0584 17.9509 10.6592 19.35 8.93335 19.35C7.20746 19.35 5.80835 17.9509 5.80835 16.225V15.1833M12.0584 15.1833H5.80835" stroke="var(--stroke-0, #3F3F46)" stroke-width="1.2" stroke-linecap="round" stroke-linejoin="round"/>
</svg>
