<svg preserveAspectRatio="none" width="100%" height="100%" overflow="visible" style="display: block;" viewBox="0 0 14.7 14.7" fill="none" xmlns="http://www.w3.org/2000/svg">
<path id="Icon" d="M0.6 7.35L2.1 5.85M2.1 5.85L7.35 0.6L12.6 5.85M2.1 5.85V13.35C2.1 13.7642 2.43579 14.1 2.85 14.1H5.1M12.6 5.85L14.1 7.35M12.6 5.85V13.35C12.6 13.7642 12.2642 14.1 11.85 14.1H9.6M5.1 14.1C5.51421 14.1 5.85 13.7642 5.85 13.35V10.35C5.85 9.93579 6.18579 9.6 6.6 9.6H8.1C8.51421 9.6 8.85 9.93579 8.85 10.35V13.35C8.85 13.7642 9.18579 14.1 9.6 14.1M5.1 14.1H9.6" stroke="var(--stroke-0, #18181B)" stroke-width="1.2" stroke-linecap="round" stroke-linejoin="round"/>
</svg>
